<svg width="14" height="5" viewBox="0 0 14 5" fill="none" xmlns="http://www.w3.org/2000/svg">
<path fill-rule="evenodd" clip-rule="evenodd" d="M0.553008 0.775989C0.612421 0.6577 0.716316 0.567799 0.841913 0.525996C0.967509 0.484193 1.10456 0.4939 1.22301 0.552988L7.00001 3.43999L12.776 0.551989C12.8348 0.521969 12.8989 0.503879 12.9647 0.49876C13.0305 0.493641 13.0966 0.501595 13.1593 0.522163C13.222 0.542732 13.28 0.575507 13.33 0.6186C13.38 0.661694 13.4209 0.714253 13.4505 0.773247C13.48 0.832241 13.4976 0.896503 13.5022 0.962328C13.5069 1.02815 13.4984 1.09424 13.4773 1.15678C13.4563 1.21932 13.4231 1.27707 13.3796 1.32671C13.3361 1.37634 13.2832 1.41688 13.224 1.44599L7.22401 4.44599C7.15448 4.48083 7.07778 4.49897 7.00001 4.49897C6.92224 4.49897 6.84554 4.48083 6.77601 4.44599L0.776008 1.44599C0.65772 1.38658 0.567818 1.28268 0.526015 1.15708C0.484212 1.03149 0.493919 0.894439 0.553008 0.775989Z" fill="white"/>
</svg>
