<svg width="800" height="400" viewBox="0 0 800 400" fill="none" xmlns="http://www.w3.org/2000/svg">
<rect width="200" height="200" transform="matrix(-1 0 0 1 600 0)" fill="#998ABA"/>
<path d="M600 0C600 26.2644 594.827 52.2716 584.776 76.5367C574.725 100.802 559.993 122.85 541.421 141.421C522.85 159.993 500.802 174.725 476.537 184.776C452.272 194.827 426.264 200 400 200L400 0H600Z" fill="#1D1F22"/>
<rect x="800" y="200" width="200" height="200" transform="rotate(180 800 200)" fill="#998ABA"/>
<rect x="800" y="200" width="200" height="100" transform="rotate(180 800 200)" fill="#1D1F22"/>
<path d="M700 0C644.772 0 600 44.7715 600 100L800 100C800 44.7715 755.228 0 700 0Z" fill="#1D1F22"/>
<rect width="200" height="200" transform="matrix(-1 0 0 1 600 200)" fill="#1D1F22"/>
<rect width="200" height="100" transform="matrix(-1 0 0 1 600 200)" fill="#998ABA"/>
<path d="M500 400C444.772 400 400 355.228 400 300H600C600 355.228 555.228 400 500 400Z" fill="#998ABA"/>
<rect x="800" y="400" width="200" height="200" transform="rotate(180 800 400)" fill="#1D1F22"/>
<path d="M700 300C644.772 300 600 344.772 600 400H800C800 344.772 755.228 300 700 300Z" fill="#5D4987"/>
<rect x="200" y="200" width="200" height="200" transform="rotate(180 200 200)" fill="#998ABA"/>
<rect x="200" y="200" width="200" height="100" transform="rotate(180 200 200)" fill="#1D1F22"/>
<path d="M100 0C44.7715 0 0 44.7715 0 100L200 100C200 44.7715 155.228 0 100 0Z" fill="#1D1F22"/>
<rect width="200" height="200" transform="matrix(-1 0 0 1 400 0)" fill="#1D1F22"/>
<rect x="200" y="400" width="200" height="200" transform="rotate(180 200 400)" fill="#1D1F22"/>
<rect width="200" height="200" transform="matrix(-1 0 0 1 400 200)" fill="#1D1F22"/>
<path d="M200 200C200 226.264 205.173 252.272 215.224 276.537C225.275 300.802 240.007 322.85 258.579 341.421C277.15 359.993 299.198 374.725 323.463 384.776C347.728 394.827 373.736 400 400 400L400 200H200Z" fill="#1D1F22"/>
</svg>
