<svg width="800" height="400" viewBox="0 0 800 400" fill="none" xmlns="http://www.w3.org/2000/svg">
<rect width="200" height="200" transform="matrix(1 0 0 -1 0 200)" fill="#5D4987"/>
<rect x="200" width="200" height="200" fill="#998ABA"/>
<path d="M200 0C200 26.2644 205.173 52.2716 215.224 76.5367C225.275 100.802 240.007 122.85 258.579 141.421C277.15 159.993 299.198 174.725 323.463 184.776C347.728 194.827 373.736 200 400 200L400 0H200Z" fill="#5D4987"/>
<rect width="200" height="200" transform="matrix(1 0 0 -1 0 400)" fill="#998ABA"/>
<path d="M200 200C200 226.264 194.827 252.272 184.776 276.537C174.725 300.802 159.993 322.85 141.421 341.421C122.85 359.993 100.802 374.725 76.5367 384.776C52.2716 394.827 26.2644 400 0 400L1.52588e-05 200H200Z" fill="#5D4987"/>
<rect x="200" y="200" width="200" height="200" fill="#998ABA"/>
<rect x="200" y="300" width="200" height="100" fill="#1D1F22"/>
<path d="M300 200C355.228 200 400 244.772 400 300H200C200 244.772 244.772 200 300 200Z" fill="#1D1F22"/>
<rect width="200" height="200" transform="matrix(-1 0 0 1 600 0)" fill="#5D4987"/>
<path d="M600 0C600 26.2644 594.827 52.2716 584.776 76.5367C574.725 100.802 559.993 122.85 541.421 141.421C522.85 159.993 500.802 174.725 476.537 184.776C452.272 194.827 426.264 200 400 200L400 0H600Z" fill="#1D1F22"/>
<rect x="800" y="200" width="200" height="200" transform="rotate(180 800 200)" fill="#5D4987"/>
<rect x="800" y="200" width="200" height="100" transform="rotate(180 800 200)" fill="#1D1F22"/>
<path d="M700 0C644.772 0 600 44.7715 600 100L800 100C800 44.7715 755.228 0 700 0Z" fill="#1D1F22"/>
<rect width="200" height="200" transform="matrix(-1 0 0 1 600 200)" fill="#1D1F22"/>
<rect width="200" height="100" transform="matrix(-1 0 0 1 600 200)" fill="#5D4987"/>
<path d="M500 400C444.772 400 400 355.228 400 300H600C600 355.228 555.228 400 500 400Z" fill="#5D4987"/>
<rect x="800" y="400" width="200" height="200" transform="rotate(180 800 400)" fill="#1D1F22"/>
<path d="M700 300C644.772 300 600 344.772 600 400H800C800 344.772 755.228 300 700 300Z" fill="#1D1F22"/>
</svg>
