<svg width="1440" height="3071" viewBox="0 0 1440 3071" fill="none" xmlns="http://www.w3.org/2000/svg">
<line y1="132.5" x2="1440" y2="132.5" stroke="#B4AEAE"/>
<line y1="282.5" x2="1440" y2="282.5" stroke="#B4AEAE"/>
<line y1="430.5" x2="1440" y2="430.5" stroke="#B4AEAE"/>
<line y1="578.5" x2="1440" y2="578.5" stroke="#B4AEAE"/>
<line y1="874.5" x2="1440" y2="874.5" stroke="#B4AEAE"/>
<line y1="1022.5" x2="1440" y2="1022.5" stroke="#B4AEAE"/>
<line y1="726.5" x2="1440" y2="726.5" stroke="#B4AEAE"/>
<line x1="-0.499939" y1="1025" x2="-0.499984" y2="1" stroke="#B4AEAE"/>
<line x1="159.5" y1="1025" x2="159.5" y2="1" stroke="#B4AEAE"/>
<line x1="319.5" y1="1025" x2="319.5" y2="1" stroke="#B4AEAE"/>
<line x1="479.5" y1="1025" x2="479.5" y2="1" stroke="#B4AEAE"/>
<line x1="639.5" y1="1025" x2="639.5" y2="1" stroke="#B4AEAE"/>
<line x1="799.5" y1="1025" x2="799.5" y2="1" stroke="#B4AEAE"/>
<line x1="959.5" y1="1025" x2="959.5" y2="1" stroke="#B4AEAE"/>
<line x1="1119.5" y1="1025" x2="1119.5" y2="1" stroke="#B4AEAE"/>
<line x1="1279.5" y1="1025" x2="1279.5" y2="1" stroke="#B4AEAE"/>
<line x1="1440.5" y1="1025" x2="1440.5" y2="1" stroke="#B4AEAE"/>
<line x1="1439.5" y1="1017" x2="1439.5" y2="-7" stroke="#B4AEAE"/>
<line x1="6.10352e-05" y1="0.5" x2="1440" y2="0.5" stroke="#B4AEAE"/>
<line y1="2178.5" x2="1440" y2="2178.5" stroke="#B4AEAE"/>
<line y1="2328.5" x2="1440" y2="2328.5" stroke="#B4AEAE"/>
<line y1="2476.5" x2="1440" y2="2476.5" stroke="#B4AEAE"/>
<line y1="2624.5" x2="1440" y2="2624.5" stroke="#B4AEAE"/>
<line y1="2920.5" x2="1440" y2="2920.5" stroke="#B4AEAE"/>
<line y1="3068.5" x2="1440" y2="3068.5" stroke="#B4AEAE"/>
<line y1="2772.5" x2="1440" y2="2772.5" stroke="#B4AEAE"/>
<line x1="-0.499939" y1="3071" x2="-0.499984" y2="2047" stroke="#B4AEAE"/>
<line x1="159.5" y1="3071" x2="159.5" y2="2047" stroke="#B4AEAE"/>
<line x1="319.5" y1="3071" x2="319.5" y2="2047" stroke="#B4AEAE"/>
<line x1="479.5" y1="3071" x2="479.5" y2="2047" stroke="#B4AEAE"/>
<line x1="639.5" y1="3071" x2="639.5" y2="2047" stroke="#B4AEAE"/>
<line x1="799.5" y1="3071" x2="799.5" y2="2047" stroke="#B4AEAE"/>
<line x1="959.5" y1="3071" x2="959.5" y2="2047" stroke="#B4AEAE"/>
<line x1="1119.5" y1="3071" x2="1119.5" y2="2047" stroke="#B4AEAE"/>
<line x1="1279.5" y1="3071" x2="1279.5" y2="2047" stroke="#B4AEAE"/>
<line x1="1440.5" y1="3071" x2="1440.5" y2="2047" stroke="#B4AEAE"/>
<line x1="1439.5" y1="3063" x2="1439.5" y2="2039" stroke="#B4AEAE"/>
<line x1="6.10352e-05" y1="2046.5" x2="1440" y2="2046.5" stroke="#B4AEAE"/>
<line y1="1154.5" x2="1440" y2="1154.5" stroke="#B4AEAE"/>
<line y1="1304.5" x2="1440" y2="1304.5" stroke="#B4AEAE"/>
<line y1="1452.5" x2="1440" y2="1452.5" stroke="#B4AEAE"/>
<line y1="1600.5" x2="1440" y2="1600.5" stroke="#B4AEAE"/>
<line y1="1896.5" x2="1440" y2="1896.5" stroke="#B4AEAE"/>
<line y1="1748.5" x2="1440" y2="1748.5" stroke="#B4AEAE"/>
<line x1="-0.499939" y1="2047" x2="-0.499984" y2="1023" stroke="#B4AEAE"/>
<line x1="159.5" y1="2047" x2="159.5" y2="1023" stroke="#B4AEAE"/>
<line x1="319.5" y1="2047" x2="319.5" y2="1023" stroke="#B4AEAE"/>
<line x1="479.5" y1="2047" x2="479.5" y2="1023" stroke="#B4AEAE"/>
<line x1="639.5" y1="2047" x2="639.5" y2="1023" stroke="#B4AEAE"/>
<line x1="799.5" y1="2047" x2="799.5" y2="1023" stroke="#B4AEAE"/>
<line x1="959.5" y1="2047" x2="959.5" y2="1023" stroke="#B4AEAE"/>
<line x1="1119.5" y1="2047" x2="1119.5" y2="1023" stroke="#B4AEAE"/>
<line x1="1279.5" y1="2047" x2="1279.5" y2="1023" stroke="#B4AEAE"/>
<line x1="1440.5" y1="2047" x2="1440.5" y2="1023" stroke="#B4AEAE"/>
<line x1="1439.5" y1="2039" x2="1439.5" y2="1015" stroke="#B4AEAE"/>
<line x1="6.10352e-05" y1="1022.5" x2="1440" y2="1022.5" stroke="#B4AEAE"/>
</svg>
