<svg width="21" height="21" viewBox="0 0 21 21" fill="none" xmlns="http://www.w3.org/2000/svg">
<g clip-path="url(#clip0_3_38)">
<path d="M11.8125 0H14.4113C14.6003 0.938438 15.12 2.12231 16.0322 3.297C16.9247 4.44806 18.1086 5.25 19.6875 5.25V7.875C17.3867 7.875 15.6581 6.80663 14.4375 5.47444V14.4375C14.4375 15.7354 14.0526 17.0042 13.3315 18.0834C12.6104 19.1626 11.5855 20.0038 10.3864 20.5005C9.18722 20.9972 7.86772 21.1271 6.59472 20.8739C5.32172 20.6207 4.1524 19.9957 3.23461 19.0779C2.31683 18.1601 1.69182 16.9908 1.4386 15.7178C1.18538 14.4448 1.31534 13.1253 1.81204 11.9261C2.30874 10.727 3.14988 9.70208 4.22907 8.98098C5.30827 8.25988 6.57706 7.875 7.875 7.875V10.5C7.09624 10.5 6.33496 10.7309 5.68745 11.1636C5.03993 11.5962 4.53525 12.2112 4.23723 12.9307C3.93921 13.6502 3.86123 14.4419 4.01316 15.2057C4.16509 15.9695 4.5401 16.6711 5.09077 17.2217C5.64144 17.7724 6.34304 18.1474 7.10684 18.2993C7.87064 18.4513 8.66234 18.3733 9.38182 18.0753C10.1013 17.7773 10.7163 17.2726 11.1489 16.6251C11.5816 15.9775 11.8125 15.2163 11.8125 14.4375V0Z" fill="#353535"/>
</g>
<defs>
<clipPath id="clip0_3_38">
<rect width="21" height="21" fill="white"/>
</clipPath>
</defs>
</svg>
