<svg width="89" height="57" viewBox="0 0 89 57" fill="none" xmlns="http://www.w3.org/2000/svg">
<g clip-path="url(#clip0_109_8)">
<mask id="mask0_109_8" style="mask-type:luminance" maskUnits="userSpaceOnUse" x="0" y="0" width="89" height="57">
<path d="M89 0H0V57H89V0Z" fill="white"/>
</mask>
<g mask="url(#mask0_109_8)">
<path d="M75.7204 27.5222C75.9448 26.0554 76.7607 21.9199 80.2489 18.1919C83.3495 14.8917 86.8785 13.7102 88.3676 13.3027C87.1029 13.1805 83.1863 12.6508 79.8205 9.45245C76.2915 6.11149 75.6388 1.99641 75.496 0.774109C75.2512 2.17975 74.374 6.00963 71.0898 9.49319C67.6832 13.0786 63.7667 14.0972 62.3795 14.4028C63.9911 14.7287 67.3365 15.6251 70.4371 18.3956C74.2517 21.7977 75.394 25.9535 75.7408 27.5425L75.7204 27.5222Z" fill="white" stroke="white" stroke-width="0.11" stroke-miterlimit="10"/>
<path d="M80.718 35.3449C80.7996 34.7541 81.1056 33.104 82.4927 31.6372C83.7166 30.3335 85.1241 29.8853 85.7157 29.7223C85.2057 29.6612 83.635 29.4371 82.2479 28.1129C80.7996 26.748 80.5141 25.0979 80.4529 24.609C80.3713 25.1794 80.0448 26.7073 78.7393 28.0722C77.393 29.4778 75.8223 29.8649 75.2715 29.9871C75.9243 30.1297 77.2706 30.5168 78.5353 31.6372C80.0856 33.0225 80.5752 34.693 80.718 35.3449Z" fill="white" stroke="white" stroke-width="0.05" stroke-miterlimit="10"/>
<path d="M37.2074 14.1787C35.1675 11.2044 31.7201 9.75805 27.0488 9.92102C25.9269 9.98213 25.1109 10.084 24.4378 10.3081C22.2143 11.0211 20.6844 12.5897 19.6848 14.4843C20.4192 16.1751 20.6436 18.1104 20.1948 19.8013C19.8072 21.1051 19.0525 22.1848 17.9305 22.7552C17.9305 22.9182 17.9305 23.0811 17.9305 23.2441C18.0121 23.2034 18.1141 23.183 18.1957 23.2237C18.3793 23.2849 18.4813 23.4682 18.5425 23.5904C20.2968 27.3184 19.746 29.8242 19.746 29.8242C19.6644 30.1909 19.5624 30.5168 19.4605 30.8428C20.5008 32.6762 22.0919 33.817 23.9686 34.0615C25.3557 34.2244 27.2528 33.9596 28.3339 33.3281C28.8031 33.0429 29.6395 32.3299 30.0066 31.7798C30.945 30.4964 31.455 28.8667 31.5365 26.911C31.5773 25.3831 31.4346 24.3238 30.9858 22.8978L30.843 22.5107L30.5166 22.3681C30.2922 22.307 30.1494 22.2255 30.1494 22.2255C30.1494 22.1848 30.5778 22.2255 31.0878 22.2255L32.0261 22.2663L31.5977 22.4089C31.047 22.5515 31.047 22.47 31.3734 23.4886C31.7405 24.772 31.8425 25.322 31.8833 26.6666C31.8833 28.8463 31.3734 30.9854 29.9454 32.7577C29.8434 32.9003 29.7619 33.0429 29.7619 33.0429C29.7619 33.1448 30.4554 33.5522 30.8838 33.7763C31.4957 34.0207 31.9853 34.1226 32.8217 34.1226C36.4323 34.1226 37.9418 30.9446 38.7577 28.0111C40.0021 23.2441 39.3493 17.3974 37.187 14.2194L37.2074 14.1787ZM31.4346 20.5754C31.4346 20.5754 31.149 20.6365 30.8838 20.6773C30.5166 20.718 30.4758 20.6773 30.3738 20.6162C30.231 20.4532 30.231 20.3106 30.2718 19.4142C30.3534 18.3142 30.4962 17.7641 30.741 17.7641C30.9246 17.7641 31.353 18.8642 31.4957 19.7402C31.5977 20.2495 31.5773 20.5347 31.4142 20.5958L31.4346 20.5754Z" fill="white"/>
<path d="M2.75384 32.5743C3.54939 32.2688 4.46734 32.2077 5.58927 32.2077C6.71121 32.2077 7.15998 32.2077 7.66995 32.2688C9.32226 32.5743 10.5054 33.1651 11.1785 34.0819H11.8313C11.8313 34.0819 11.9741 33.9392 12.1169 33.817C13.2388 32.7373 14.7687 32.1669 16.3394 32.1669C17.1554 32.1669 17.849 32.3095 18.4609 32.5336C18.7465 31.9021 18.9301 31.128 19.0321 30.1909C19.0729 29.6816 19.0729 29.1519 19.0321 28.5815C18.9913 28.0111 18.9097 27.4611 18.7873 26.911C18.6649 26.361 18.5017 25.8313 18.2977 25.322C18.0937 24.8127 17.849 24.3442 17.6042 23.9367C17.441 23.6923 17.3186 23.5497 17.2166 23.5497C17.1146 23.5497 16.931 23.5904 16.6658 23.6515C16.523 23.6923 16.3394 23.733 16.1151 23.7534C15.8907 23.7738 15.6459 23.7941 15.3807 23.7941C15.1155 23.7941 14.8911 23.7941 14.6463 23.7534C14.422 23.733 14.2384 23.7127 14.0956 23.6923C13.4428 23.5089 12.9328 23.2237 12.5453 22.8367C12.3821 22.6737 12.2801 22.5718 12.2393 22.5515C12.1985 22.5107 12.1169 22.5107 12.0353 22.5515C11.8313 22.5922 11.6273 22.7959 11.4233 23.1219C11.2193 23.4478 11.0766 23.8756 10.995 24.3849C10.9542 24.6701 10.893 24.8535 10.8318 24.9553C10.7706 25.0572 10.689 25.1183 10.5666 25.1183C10.4646 25.1183 10.3626 25.0572 10.2402 24.9553C10.1178 24.8535 10.0362 24.7516 9.97502 24.6294C9.87302 24.4868 9.81183 24.1812 9.73023 23.6923C9.64864 23.2034 9.60784 22.7552 9.56704 22.307C9.54664 21.9607 9.56704 21.5329 9.60784 21.0032C9.64864 20.4736 9.70983 19.9235 9.77103 19.3531C9.83222 18.7827 9.93422 18.2327 10.0362 17.703C10.1382 17.1733 10.2402 16.7252 10.3218 16.3788C10.3626 16.3177 10.4034 16.2566 10.4034 16.2159C10.4034 16.1751 10.4238 16.114 10.4646 16.0733C10.4646 16.0325 10.4646 15.9714 10.5054 15.9307V16.9696C10.5054 17.7234 10.6074 18.4975 10.791 19.292C10.9746 20.0661 11.2601 20.7791 11.6477 21.4107C12.0353 22.0422 12.5249 22.5718 13.1572 22.9793C13.7896 23.3867 14.524 23.6108 15.4011 23.6108C16.4822 23.6108 17.3594 23.2849 18.0325 22.633C18.7057 21.9811 19.1749 21.1662 19.4605 20.168C19.6644 19.3939 19.746 18.5586 19.6645 17.7234C19.6033 16.8678 19.4197 16.0529 19.1341 15.2584C18.8485 14.4639 18.4609 13.7305 17.9713 13.0583C17.4818 12.386 16.931 11.8563 16.319 11.4285C15.0951 10.6137 13.6264 10.1451 11.9129 9.98211C11.6885 9.96173 11.3417 9.94136 10.8726 9.92099C10.4034 9.92099 9.93422 9.92099 9.44465 9.92099C8.95508 9.92099 8.4859 9.94136 8.07793 9.98211C7.66995 10.0025 7.36397 10.0433 7.18038 10.084C5.77286 10.3896 4.61013 10.9803 3.69218 11.8563C2.77424 12.7527 2.03988 13.7916 1.48911 14.9936C0.938345 16.1955 0.571167 17.4789 0.367179 18.8235C0.101994 20.1884 0 21.4921 0 22.7348C0 25.4646 0.265184 27.6444 0.795553 29.3149C1.24433 30.6798 1.89709 31.7798 2.75384 32.5947V32.5743Z" fill="white"/>
<path d="M21.6023 52.4367C21.4596 51.9682 21.2964 50.8477 21.174 49.544C20.7048 44.8381 21.0312 40.4378 22.0511 37.871C22.0919 37.7895 22.1123 37.7284 22.1531 37.6469C21.5615 34.8967 20.2152 32.7373 16.829 32.7373C15.2583 32.7373 13.7284 33.3281 12.6065 34.3874C12.2393 34.693 12.1781 34.7948 12.1985 34.8967C12.2393 34.9578 12.3005 35.2838 12.3821 35.5486C12.4637 35.8134 12.5657 36.3838 12.6269 36.7505C12.7085 37.6469 12.7085 40.6619 12.5861 41.6601C12.5045 42.5565 12.3005 43.6973 12.2189 43.7788C12.2189 43.8195 12.2597 44.064 12.3617 44.3288L12.5861 44.8381L12.1577 44.8788C11.9129 44.9196 11.6477 44.9399 11.5661 44.9399C11.4709 44.9671 11.4437 44.9467 11.4845 44.8788C11.7293 44.6344 11.9537 44.0436 12.0761 43.5343C12.3005 42.1083 12.4841 39.1748 12.3617 37.6876C12.2597 36.2616 12.1373 35.5079 11.9333 35.1004C11.3417 33.9189 10.077 33.1651 8.1391 32.8188C7.62913 32.7577 7.22115 32.7577 6.05842 32.7577C3.69216 32.7577 2.20305 33.0021 1.08111 35.2023C0.530345 36.282 0.326357 37.2394 0.101969 39.6637C-0.040822 41.1508 -0.040822 45.7752 0.061172 47.3031C0.305957 50.6237 0.571142 52.1719 1.04032 53.6387C1.69308 55.4721 2.71302 56.6537 3.81455 56.9185C4.22253 57.0204 6.09922 56.9796 6.83358 56.8778C8.60827 56.6333 11.5253 55.7369 12.1373 53.9035C12.3617 53.3535 12.3821 52.9257 12.3821 52.0089C12.3821 50.4199 11.9741 48.9939 11.4029 47.5475C11.4029 47.5068 11.6477 47.4864 11.9129 47.4864C12.1781 47.4864 12.3821 47.4864 12.3821 47.5272C12.3821 47.5272 12.3005 47.7716 12.2393 48.0161L12.0965 48.505L12.2801 49.0958C12.5657 50.0736 12.7085 50.7255 12.7085 51.7848C12.7901 53.3127 12.5249 54.3109 11.9129 54.9628L11.6681 55.2684L11.8517 55.4721C12.1373 55.9203 12.9532 56.4092 13.7896 56.674C14.3404 56.837 14.9931 56.9185 16.523 56.9185C17.6858 56.8778 18.053 56.8778 18.3793 56.7759C20.3376 56.2666 21.3984 54.7999 21.8063 53.0275C21.7247 52.8238 21.6431 52.6201 21.6023 52.4164V52.4367Z" fill="white"/>
<path d="M38.309 54.861C37.3094 53.5572 36.6771 51.52 36.4323 48.9736C35.6979 48.8106 34.9228 48.7495 34.2088 48.7495C33.1073 48.7495 31.7813 48.8513 30.7818 49.0754C30.4554 49.1365 30.2106 49.1773 30.0066 49.1773C29.6395 49.1773 29.4763 49.0754 29.3335 48.8717C29.2723 48.6476 29.1703 48.0772 29.1703 47.629C29.1703 47.242 29.2315 47.079 29.5987 47.079C29.8027 47.079 30.0678 47.1197 30.4758 47.2012C31.8221 47.5068 32.6585 47.629 33.6376 47.629C34.5352 47.629 34.9839 47.5272 35.6163 47.242C35.8611 47.1401 36.1059 46.9568 36.3099 46.7327C36.3099 45.4696 36.3507 44.1047 36.4935 42.6583C36.4323 42.5768 36.3507 42.4954 36.2691 42.4342C36.0651 42.2577 35.8883 42.183 35.7387 42.2102C35.4735 42.2509 32.3525 42.2509 32.0873 42.2102C31.9241 42.1694 31.6589 42.2509 30.9042 42.4342C30.1902 42.638 29.9046 42.7398 29.7007 42.6991C29.4967 42.6991 29.3947 42.6312 29.3947 42.4954C29.3539 42.3324 29.3947 42.2713 29.5375 42.1287C29.7415 41.9657 29.9454 41.9046 30.435 41.9046C30.7614 41.9046 31.2714 41.9453 32.0057 42.0064C33.862 42.1287 34.3312 42.1287 35.3307 42.0675C35.7591 42.0268 36.1671 41.9657 36.5751 41.8842C36.6159 41.4564 36.677 41.0286 36.7382 40.6008C37.085 38.258 37.4726 35.9764 38.8393 34.53C38.3294 34.0818 37.6562 33.7559 36.8402 33.5318L36.2691 33.3688H32.0057C29.1907 33.3688 27.5792 33.4096 27.1712 33.4911C24.9273 33.98 23.479 35.4264 22.7039 37.4635C21.7043 40.1526 21.3575 44.7974 21.8267 49.7681C21.9695 51.1533 22.1327 52.3349 22.2551 52.8238C22.5611 54.3109 23.9686 56.0222 25.5189 56.3074C25.6617 56.3481 28.1096 56.3481 30.9654 56.3481H36.1671L36.5955 56.2259C37.3706 56.0222 38.0234 55.6555 38.5537 55.1869C38.4517 55.0851 38.3702 54.9628 38.2886 54.861H38.309Z" fill="white"/>
<path d="M47.6312 43.8806C47.5496 41.8231 47.57 39.46 47.6312 36.7709C47.6312 35.9764 47.672 35.2838 47.6924 34.6523C46.6317 33.8985 45.2038 33.5318 43.4699 33.6133C38.8393 33.817 38.1866 37.3821 37.6154 41.1101C36.6771 47.5272 37.2482 52.6405 39.1861 55.1462C39.8185 56.0222 40.8588 56.6537 42.042 56.9185C42.3479 56.9796 42.7355 56.9796 43.8982 56.9796C46.0605 56.9389 46.3665 56.837 47.264 56.0018C48.1004 55.1869 48.7124 54.148 49.0795 52.8442C48.08 50.1347 47.7536 46.5901 47.6516 43.8603L47.6312 43.8806Z" fill="white"/>
<path d="M60.054 49.8903C60.0948 49.6254 60.1152 49.3606 60.1356 49.0958C60.2784 47.3846 60.3396 45.8363 60.36 44.4307C59.748 44.1862 59.2788 43.7991 58.9117 43.2287C58.8097 43.025 58.4425 42.2509 58.2997 41.8027C58.1569 41.4564 57.8713 40.2748 57.7081 39.6229C57.5653 38.8692 57.5653 37.3821 57.7081 36.7505C57.9325 35.8949 58.3201 35.1615 58.6873 34.9171C58.8301 34.8152 59.5236 34.5708 60.2784 34.3059C60.2784 33.9596 60.2784 33.6133 60.2784 33.2466C61.4207 33.3077 62.3591 33.3485 63.073 33.3688C63.2158 33.3688 63.3586 33.3688 63.4606 33.3688C65.1537 32.9614 66.7856 32.6558 68.3767 32.4725C68.6215 32.3502 68.8459 32.2076 69.0703 32.0243C69.9882 31.2094 70.1718 30.1094 70.4574 28.6019C70.6818 27.3184 70.641 26.3813 70.5594 24.9146C70.4778 23.4071 70.437 22.633 70.0494 21.757C69.7638 21.1254 69.3559 20.2291 68.4583 19.7402C67.8259 19.3735 67.3772 19.455 64.7253 19.4142C64.5213 19.4142 64.9701 19.4142 62.9098 19.3735C59.8092 19.3327 56.6474 19.3327 54.4443 19.3124C51.1601 19.2716 48.6511 19.129 44.5101 19.3531C42.8374 19.4346 41.5727 19.5568 40.5731 20.4939C39.5736 21.431 39.3696 22.6941 39.0432 25.2609C38.7168 27.8888 38.5129 29.5797 39.5736 30.802C40.0632 31.352 40.6955 31.6576 41.2259 31.9428C41.6339 32.1465 42.4702 32.554 44.3877 32.8595C45.3873 33.0225 46.7744 33.1855 48.4675 33.1855C48.4267 34.0004 48.3859 35.243 48.3655 36.7302C48.3043 39.4192 48.2839 41.7823 48.3655 43.8399C48.5491 48.3013 49.263 54.9425 52.69 56.6129C53.098 56.7759 53.3632 56.837 54.0771 56.8778C55.5255 56.9796 56.7698 56.7759 57.3206 56.3889C57.6469 56.1648 58.5241 54.8813 58.8505 54.0665C58.9117 53.9239 58.9729 53.7609 59.0545 53.5979C58.8709 52.5182 59.1972 51.2552 59.9928 49.9106L60.054 49.8903Z" fill="white"/>
<path d="M58.4222 40.1322C58.2794 39.3785 58.2794 37.8914 58.4222 37.2598C58.6466 36.4042 59.0342 35.6708 59.4013 35.4264C59.6461 35.2634 61.584 34.5911 62.6447 34.2856C65.8474 33.3892 68.7644 32.9003 71.6406 32.7984C73.5785 32.7577 74.8024 32.9003 76.1895 33.2873C77.8622 33.7763 78.5966 35.0189 78.923 36.6079C79.2494 38.0339 79.1066 39.6841 78.5558 41.0286C78.0458 42.312 76.5567 44.2066 75.0268 45.49C74.4149 46.04 74.1089 46.2234 73.9049 46.2437C71.967 46.4882 70.0087 47.1401 68.7032 48.0161C68.234 48.3013 67.6424 48.7698 67.9688 48.6069C69.5395 47.7105 71.3142 46.8345 73.1705 46.5697C73.7825 46.4678 74.8432 46.4678 75.394 46.6104C76.7403 46.8956 77.6787 47.792 78.2702 49.381C78.6782 50.3792 78.821 51.8052 78.6986 52.8442C78.3314 55.5129 76.8423 55.8592 74.4353 56.2666C70.8043 56.8167 67.6017 57.0611 64.9702 56.9593C63.5423 56.8981 62.0532 56.6129 61.3392 56.3074C60.6865 56.0018 60.2173 55.4518 59.9113 54.5758C59.2993 52.7423 60.3805 50.2162 62.9711 47.6901C64.1747 46.5086 65.9494 45.164 67.6221 44.2066C67.7036 44.2066 68.0912 44.0029 68.6012 43.7584C70.0291 43.1269 71.6202 42.1694 72.4566 41.4157C72.8237 41.1101 72.7014 41.1712 72.1302 41.5786C71.5794 41.9657 70.8859 42.3731 70.8655 42.3731C70.8451 42.3731 70.7635 42.4342 70.6411 42.5157C69.7027 43.2084 64.9702 45.0418 63.5831 45.2048C63.3383 45.2455 62.8487 45.2455 62.4816 45.2455C61.0944 45.1844 60.1969 44.7362 59.6053 43.7584C59.5033 43.5547 59.1361 42.7806 58.9934 42.3324C58.8506 41.9861 58.565 40.8045 58.4018 40.1526L58.4222 40.1322Z" fill="white"/>
</g>
</g>
<defs>
<clipPath id="clip0_109_8">
<rect width="89" height="57" fill="white"/>
</clipPath>
</defs>
</svg>
